<?xml version="1.0" encoding="UTF-8"?>
<svg xmlns="http://www.w3.org/2000/svg" width="600" height="400" viewBox="0 0 600 400" role="img" aria-labelledby="title desc">
  <title id="title">Chicken &amp; Rice Meal Prep</title>
  <desc id="desc">Bowl with rice, sliced chicken, and broccoli.</desc>

  <rect width="600" height="400" fill="#F6F8FA"/>

  <defs>
    <filter id="cardShadow" x="-30%" y="-30%" width="160%" height="160%">
      <feDropShadow dx="0" dy="6" stdDeviation="8" flood-color="#000" flood-opacity=".12"/>
    </filter>
    <linearGradient id="a0" x1="0" x2="0" y1="0" y2="1">
      <stop offset="0" stop-color="#e6ecf2"/>
      <stop offset="1" stop-color="#cfd9e5"/>
    </linearGradient>
  </defs>

  <g filter="url(#cardShadow)">
    <rect x="50" y="40" rx="16" ry="16" width="500" height="320" fill="#ffffff" stroke="#E3E8EF"/>
  </g>

  <text x="300" y="90" font-family="Arial, Helvetica, sans-serif" font-size="22" text-anchor="middle" fill="#2C3E50" font-weight="700">Chicken &amp; Rice Meal Prep</text>

  
  <g transform="translate(0,10)">
    <ellipse cx="300" cy="292" rx="170" ry="24" fill="#cbd5e1"/>
    <path d="M140,242 Q300,287 460,242 L452,294 Q300,337 148,294 Z" fill="url(#a0)" stroke="#b8c4d2"/>
    <ellipse cx="300" cy="235" rx="160" ry="45" fill="#ffffff" stroke="#e2e8f0"/>
    <g fill="#e6edf3">
      <ellipse cx="220" cy="228" rx="16" ry="5"/>
      <ellipse cx="260" cy="220" rx="18" ry="6"/>
      <ellipse cx="305" cy="228" rx="15" ry="5"/>
      <ellipse cx="350" cy="222" rx="17" ry="6"/>
      <ellipse cx="390" cy="232" rx="15" ry="5"/>
    </g>
    <g fill="#27AE60">
      <circle cx="205" cy="242" r="16"/>
      <circle cx="225" cy="249" r="14"/>
      <circle cx="390" cy="242" r="15"/>
      <circle cx="408" cy="249" r="13"/>
    </g>
    <g stroke="#218a4d" stroke-width="3">
      <line x1="205" y1="242" x2="205" y2="255"/>
      <line x1="225" y1="249" x2="225" y2="261"/>
      <line x1="390" y1="242" x2="390" y2="255"/>
      <line x1="408" y1="249" x2="408" y2="261"/>
    </g>
    <g>
      <rect x="260" y="220" width="46" height="12" rx="6" fill="#F4D6B0" stroke="#E2C39A"/>
      <rect x="305" y="230" width="46" height="12" rx="6" fill="#F4D6B0" stroke="#E2C39A"/>
      <rect x="340" y="223" width="46" height="12" rx="6" fill="#F4D6B0" stroke="#E2C39A"/>
    </g>
  </g>


  <text x="300" y="350" font-family="Arial, Helvetica, sans-serif" font-size="12" text-anchor="middle" fill="#64748B">Budget Muscle Meals</text>
</svg>