<?xml version="1.0" encoding="UTF-8"?>
<svg xmlns="http://www.w3.org/2000/svg" width="600" height="400" viewBox="0 0 600 400" role="img" aria-labelledby="title desc">
  <title id="title">Black Bean &amp; Quinoa Bowl</title>
  <desc id="desc">Bowl with quinoa, black beans, corn, avocado, and salsa.</desc>

  <rect width="600" height="400" fill="#F6F8FA"/>

  <defs>
    <filter id="cardShadow" x="-30%" y="-30%" width="160%" height="160%">
      <feDropShadow dx="0" dy="6" stdDeviation="8" flood-color="#000" flood-opacity=".12"/>
    </filter>
    <linearGradient id="a0" x1="0" x2="0" y1="0" y2="1">
      <stop offset="0" stop-color="#e6ecf2"/>
      <stop offset="1" stop-color="#cfd9e5"/>
    </linearGradient>
  </defs>

  <g filter="url(#cardShadow)">
    <rect x="50" y="40" rx="16" ry="16" width="500" height="320" fill="#ffffff" stroke="#E3E8EF"/>
  </g>

  <text x="300" y="90" font-family="Arial, Helvetica, sans-serif" font-size="22" text-anchor="middle" fill="#2C3E50" font-weight="700">Black Bean &amp; Quinoa Bowl</text>

  
  <g transform="translate(0,8)">
    <ellipse cx="300" cy="290" rx="170" ry="24" fill="#b8c4d2"/>
    <path d="M140,240 Q300,285 460,240 L452,292 Q300,335 148,292 Z" fill="url(#a0)" stroke="#b8c4d2"/>
    <ellipse cx="300" cy="230" rx="160" ry="45" fill="#f5e6c7" stroke="#d1c4a3"/>
    <g fill="#2C3E50">
      <ellipse cx="250" cy="230" rx="10" ry="6"/>
      <ellipse cx="270" cy="240" rx="10" ry="6"/>
      <ellipse cx="290" cy="228" rx="10" ry="6"/>
      <ellipse cx="315" cy="238" rx="10" ry="6"/>
      <ellipse cx="340" cy="230" rx="10" ry="6"/>
    </g>
    <g fill="#f2d66b">
      <circle cx="230" cy="222" r="3"/>
      <circle cx="260" cy="236" r="3"/>
      <circle cx="320" cy="226" r="3"/>
      <circle cx="350" cy="236" r="3"/>
      <circle cx="370" cy="228" r="3"/>
    </g>
    <g><path d="M360,210 q25,10 0,20 q-25,-10 0,-20z" fill="#27AE60" stroke="#218a4d"/>
       <path d="M380,205 q25,10 0,20 q-25,-10 0,-20z" fill="#27AE60" stroke="#218a4d"/></g>
    <g fill="#E74C3C"><circle cx="210" cy="234" r="6"/><circle cx="325" cy="218" r="6"/></g>
  </g>


  <text x="300" y="350" font-family="Arial, Helvetica, sans-serif" font-size="12" text-anchor="middle" fill="#64748B">Budget Muscle Meals</text>
</svg>