<?xml version="1.0" encoding="UTF-8"?>
<svg xmlns="http://www.w3.org/2000/svg" width="600" height="400" viewBox="0 0 600 400" role="img" aria-labelledby="title desc">
  <title id="title">Shrimp &amp; Veggie Skillet</title>
  <desc id="desc">Skillet with shrimp, zucchini, and peppers.</desc>

  <rect width="600" height="400" fill="#F6F8FA"/>

  <defs>
    <filter id="cardShadow" x="-30%" y="-30%" width="160%" height="160%">
      <feDropShadow dx="0" dy="6" stdDeviation="8" flood-color="#000" flood-opacity=".12"/>
    </filter>
    <linearGradient id="a0" x1="0" x2="0" y1="0" y2="1">
      <stop offset="0" stop-color="#e6ecf2"/>
      <stop offset="1" stop-color="#cfd9e5"/>
    </linearGradient>
  </defs>

  <g filter="url(#cardShadow)">
    <rect x="50" y="40" rx="16" ry="16" width="500" height="320" fill="#ffffff" stroke="#E3E8EF"/>
  </g>

  <text x="300" y="90" font-family="Arial, Helvetica, sans-serif" font-size="22" text-anchor="middle" fill="#2C3E50" font-weight="700">Shrimp &amp; Veggie Skillet</text>

  
  <g transform="translate(0,10)">
    <ellipse cx="300" cy="292" rx="180" ry="22" fill="#cbd5e1"/>
    <ellipse cx="300" cy="245" rx="170" ry="70" fill="#2c3742"/>
    <ellipse cx="300" cy="240" rx="150" ry="50" fill="#1f2933"/>
    <g fill="#f79ca0" stroke="#e68588">
      <path d="M260,230 q25,-20 40,0 q-10,18 -35,12 q-8,-3 -5,-12z"/>
      <path d="M305,220 q25,-20 40,0 q-10,18 -35,12 q-8,-3 -5,-12z"/>
      <path d="M345,240 q25,-20 40,0 q-10,18 -35,12 q-8,-3 -5,-12z"/>
    </g>
    <g>
      <circle cx="270" cy="245" r="10" fill="#27AE60" stroke="#218a4d"/>
      <circle cx="315" cy="235" r="10" fill="#27AE60" stroke="#218a4d"/>
    </g>
    <g>
      <rect x="335" y="225" width="26" height="6" rx="3" fill="#E74C3C" transform="rotate(15 348 228)"/>
      <rect x="290" y="250" width="24" height="6" rx="3" fill="#f59e0b" transform="rotate(-10 302 253)"/>
    </g>
  </g>


  <text x="300" y="350" font-family="Arial, Helvetica, sans-serif" font-size="12" text-anchor="middle" fill="#64748B">Budget Muscle Meals</text>
</svg>